<?xml version="1.0" standalone="no"?>
<!DOCTYPE svg PUBLIC "-//W3C//DTD SVG 20010904//EN"
 "http://www.w3.org/TR/2001/REC-SVG-20010904/DTD/svg10.dtd">
<svg version="1.0" xmlns="http://www.w3.org/2000/svg"
 width="1920.000000pt" height="1072.000000pt" viewBox="0 0 1920.000000 1072.000000"
 preserveAspectRatio="xMidYMid meet">

<g transform="translate(0.000000,1072.000000) scale(0.100000,-0.100000)"
fill="#000000" stroke="none">
<path d="M14970 10658 c-166 -368 -94 -745 223 -1166 79 -106 372 -414 484
-509 205 -174 392 -311 708 -518 345 -226 508 -357 721 -578 99 -102 284 -317
284 -330 0 -2 16 -22 35 -43 19 -21 35 -44 35 -51 0 -7 4 -13 8 -13 26 0 459
-671 446 -691 -3 -5 -1 -9 5 -9 11 0 84 -128 84 -147 0 -7 3 -11 5 -8 3 3 17
-16 32 -42 14 -27 41 -75 59 -107 19 -33 29 -56 23 -52 -6 3 -14 2 -17 -4 -4
-6 -3 -10 2 -9 20 4 33 -2 33 -15 0 -8 4 -16 8 -18 12 -4 125 -209 125 -225 0
-7 3 -13 7 -13 8 0 103 -166 100 -176 -1 -4 2 -10 7 -13 11 -7 72 -107 76
-123 1 -6 10 -20 20 -30 10 -10 15 -23 12 -28 -4 -6 -2 -10 2 -10 10 0 93
-132 93 -147 0 -6 7 -13 15 -17 8 -3 15 -12 15 -19 0 -8 7 -20 15 -27 9 -7 14
-19 11 -27 -3 -8 -2 -11 4 -8 11 7 32 -29 22 -40 -4 -5 -2 -5 5 -1 11 6 30
-29 25 -47 -1 -5 2 -6 7 -3 7 5 55 -56 59 -76 1 -5 10 -17 20 -27 30 -33 43
-51 38 -51 -2 0 8 -13 22 -28 45 -48 97 -116 82 -107 -8 5 10 -16 40 -47 30
-31 90 -93 133 -137 43 -44 82 -83 88 -86 5 -4 9 1092 9 2939 l0 2946 -2101 0
-2100 0 -29 -62z"/>
<path d="M15480 9015 c-19 -22 -8 -25 13 -3 9 10 13 18 8 18 -5 0 -14 -7 -21
-15z"/>
<path d="M15456 8971 c-4 -5 3 -7 14 -4 23 6 26 13 6 13 -8 0 -17 -4 -20 -9z"/>
<path d="M15430 8961 c0 -6 -10 -16 -22 -21 -20 -7 -20 -9 -4 -9 15 -1 16 -4
6 -16 -11 -13 -10 -14 6 -8 17 6 18 5 4 -13 -14 -18 -14 -18 2 -5 13 9 15 18
8 31 -6 11 -5 21 2 28 7 7 9 15 5 19 -4 3 -7 1 -7 -6z"/>
<path d="M15370 8900 c-6 -11 -8 -20 -6 -20 3 0 10 9 16 20 6 11 8 20 6 20 -3
0 -10 -9 -16 -20z"/>
<path d="M15343 8865 c0 -8 4 -12 9 -9 5 3 6 10 3 15 -9 13 -12 11 -12 -6z"/>
<path d="M15304 8818 c-4 -7 -4 -10 1 -6 4 4 15 2 24 -5 14 -11 14 -10 2 6
-16 20 -18 21 -27 5z"/>
<path d="M15245 8769 c-4 -6 -5 -12 -2 -15 2 -3 7 2 10 11 7 17 1 20 -8 4z"/>
<path d="M15178 8676 c12 -16 9 -36 -8 -46 -9 -6 -10 -10 -3 -10 6 0 15 6 20
13 13 20 11 54 -3 54 -8 0 -10 -5 -6 -11z"/>
<path d="M15126 8612 c-3 -4 4 -9 15 -9 23 -2 25 3 4 10 -8 4 -16 3 -19 -1z"/>
<path d="M15120 8586 c0 -2 7 -7 16 -10 8 -3 12 -2 9 4 -6 10 -25 14 -25 6z"/>
<path d="M15064 8500 c0 -13 4 -16 10 -10 7 7 7 13 0 20 -6 6 -10 3 -10 -10z"/>
<path d="M15093 8501 c0 -11 5 -18 9 -15 4 3 5 11 1 19 -7 21 -12 19 -10 -4z"/>
<path d="M14985 8350 c-3 -6 1 -7 9 -4 18 7 21 14 7 14 -6 0 -13 -4 -16 -10z"/>
<path d="M15024 8345 c3 -23 12 -26 13 -5 1 11 -2 20 -7 20 -4 0 -7 -7 -6 -15z"/>
<path d="M14987 8303 c5 -12 2 -15 -10 -10 -10 4 -14 2 -11 -6 2 -7 12 -13 22
-13 20 0 24 33 5 40 -8 3 -10 -1 -6 -11z"/>
<path d="M15020 8291 c0 -6 4 -13 10 -16 6 -3 7 1 4 9 -7 18 -14 21 -14 7z"/>
<path d="M14934 8194 c-10 -8 -13 -13 -6 -9 6 3 12 1 12 -4 0 -6 4 -11 8 -11
4 0 8 9 8 20 0 11 -1 20 -1 20 -1 0 -10 -7 -21 -16z"/>
<path d="M14940 8120 c0 -20 -2 -21 -17 -9 -15 11 -16 11 -6 -1 19 -21 40 -20
38 1 -2 28 -15 36 -15 9z"/>
<path d="M14910 7705 c-7 -9 -8 -15 -2 -15 5 0 12 7 16 15 3 8 4 15 2 15 -2 0
-9 -7 -16 -15z"/>
<path d="M14925 7663 c-20 -15 -20 -15 0 -11 14 2 20 -2 19 -14 -1 -10 2 -15
7 -12 8 5 7 39 -2 48 -2 2 -13 -2 -24 -11z"/>
<path d="M14967 7479 c7 -7 15 -10 18 -7 3 3 -2 9 -12 12 -14 6 -15 5 -6 -5z"/>
<path d="M15014 7365 c8 -8 18 -15 22 -15 3 0 1 7 -6 15 -7 8 -17 15 -22 15
-5 0 -3 -7 6 -15z"/>
<path d="M15023 7325 c0 -8 4 -12 9 -9 5 3 6 10 3 15 -9 13 -12 11 -12 -6z"/>
<path d="M15621 7294 c0 -11 3 -14 6 -6 3 7 2 16 -1 19 -3 4 -6 -2 -5 -13z"/>
<path d="M15402 7140 c0 -14 2 -19 5 -12 2 6 2 18 0 25 -3 6 -5 1 -5 -13z"/>
<path d="M17790 6280 c0 -5 5 -10 10 -10 6 0 10 5 10 10 0 6 -4 10 -10 10 -5
0 -10 -4 -10 -10z"/>
<path d="M17878 6283 c23 -2 61 -2 85 0 23 2 4 4 -43 4 -47 0 -66 -2 -42 -4z"/>
<path d="M17535 6150 c3 -5 10 -10 16 -10 5 0 9 5 9 10 0 6 -7 10 -16 10 -8 0
-12 -4 -9 -10z"/>
<path d="M17328 6143 c6 -2 12 -11 12 -19 0 -8 5 -14 10 -14 6 0 10 9 10 20 0
14 -6 20 -22 19 -13 0 -17 -3 -10 -6z"/>
<path d="M17521 6094 c0 -11 3 -14 6 -6 3 7 2 16 -1 19 -3 4 -6 -2 -5 -13z"/>
<path d="M17338 6083 c7 -3 16 -2 19 1 4 3 -2 6 -13 5 -11 0 -14 -3 -6 -6z"/>
<path d="M17138 6063 c12 -2 32 -2 45 0 12 2 2 4 -23 4 -25 0 -35 -2 -22 -4z"/>
<path d="M16895 6040 l-50 -7 45 -1 c25 -1 52 3 60 8 8 5 11 9 5 8 -5 -1 -32
-4 -60 -8z"/>
<path d="M18006 5177 c3 -10 9 -15 12 -12 3 3 0 11 -7 18 -10 9 -11 8 -5 -6z"/>
<path d="M18850 5181 c0 -5 7 -12 16 -15 14 -5 15 -4 4 9 -14 17 -20 19 -20 6z"/>
<path d="M18809 5168 c-1 -4 -2 -14 -3 -20 -1 -8 -22 -16 -51 -19 l-50 -6 55
1 c45 1 55 4 52 17 -2 12 4 15 25 13 16 -2 20 -1 10 2 -9 3 -15 9 -13 13 3 4
-1 8 -9 8 -8 0 -16 -4 -16 -9z"/>
<path d="M18466 5141 c-4 -7 -5 -15 -2 -18 9 -9 19 4 14 18 -4 11 -6 11 -12 0z"/>
<path d="M18883 5134 c-14 -6 -6 -34 16 -52 14 -12 14 -13 -3 -8 -16 6 -17 4
-5 -10 8 -10 15 -12 17 -5 2 6 8 11 14 11 6 0 8 -6 5 -14 -6 -15 17 -16 30 -1
5 4 2 5 -6 0 -11 -6 -13 -4 -8 9 4 9 3 15 -1 12 -16 -10 -51 24 -47 44 2 11 3
20 2 19 -1 0 -7 -3 -14 -5z"/>
<path d="M18240 5070 c0 -5 5 -10 10 -10 6 0 10 5 10 10 0 6 -4 10 -10 10 -5
0 -10 -4 -10 -10z"/>
<path d="M18351 5056 c-12 -14 -12 -19 -1 -29 9 -8 11 -9 6 0 -3 6 -1 13 5 15
7 2 10 10 8 17 -4 10 -8 9 -18 -3z"/>
<path d="M18300 5039 c0 -5 -5 -7 -12 -3 -7 4 -8 3 -4 -5 6 -9 11 -9 22 0 17
14 18 19 4 19 -5 0 -10 -5 -10 -11z"/>
<path d="M18383 5028 c3 -9 1 -19 -6 -21 -7 -3 -2 -4 10 -4 18 1 20 4 10 17
-19 25 -20 26 -14 8z"/>
<path d="M18400 5037 c0 -2 14 -16 31 -33 32 -29 32 -29 15 -2 -14 21 -46 46
-46 35z"/>
<path d="M18440 5034 c0 -2 9 -8 20 -14 15 -8 18 -8 14 3 -4 11 -34 21 -34 11z"/>
<path d="M18994 5022 c4 -7 2 -12 -3 -12 -12 0 -10 -33 2 -37 22 -8 28 -1 11
12 -12 10 -14 14 -4 12 8 -2 12 -2 7 0 -4 3 -5 9 -2 13 3 5 0 12 -6 16 -8 4
-9 3 -5 -4z"/>
<path d="M18676 4951 c-3 -4 6 -6 19 -3 14 2 25 6 25 8 0 8 -39 4 -44 -5z"/>
<path d="M18770 4953 c0 -5 32 -8 70 -8 39 0 70 3 70 8 0 4 -31 7 -70 7 -38 0
-70 -3 -70 -7z"/>
<path d="M19043 4933 c0 -7 3 -11 5 -8 3 3 12 -1 21 -8 14 -10 14 -10 4 4 -7
9 -11 18 -8 21 3 2 -1 5 -8 5 -8 0 -14 -6 -14 -14z"/>
<path d="M18689 4917 c6 -8 7 -18 3 -22 -4 -5 -1 -5 6 -1 10 6 10 11 1 22 -6
8 -14 14 -16 14 -3 0 0 -6 6 -13z"/>
<path d="M19087 4896 c-4 -10 1 -12 14 -9 23 6 24 9 5 16 -8 3 -17 0 -19 -7z"/>
</g>
</svg>
