<?xml version="1.0" encoding="utf-8"?>
<!-- Generator: Adobe Illustrator 27.5.0, SVG Export Plug-In . SVG Version: 6.00 Build 0)  -->
<svg version="1.1" id="Layer_1" xmlns="http://www.w3.org/2000/svg" xmlns:xlink="http://www.w3.org/1999/xlink" x="0px" y="0px"
	 viewBox="0 0 960 560" style="enable-background:new 0 0 960 560;" xml:space="preserve">
<g>
	<defs>
		<rect id="SVGID_1_" width="960" height="560"/>
	</defs>
	<clipPath id="SVGID_00000121281039324755516170000010442953686610850989_">
		<use xlink:href="#SVGID_1_"  style="overflow:visible;"/>
	</clipPath>
	
		<rect style="clip-path:url(#SVGID_00000121281039324755516170000010442953686610850989_);fill:#F9F9F9;" width="960" height="560"/>
	<g style="opacity:0.42;clip-path:url(#SVGID_00000121281039324755516170000010442953686610850989_);">
		
			<linearGradient id="SVGID_00000133509984163743719820000002466181057145041035_" gradientUnits="userSpaceOnUse" x1="58.7768" y1="369.9967" x2="354.7768" y2="-254.0033">
			<stop  offset="0" style="stop-color:#FFFFFF"/>
			<stop  offset="0.2132" style="stop-color:#F9F9F9"/>
			<stop  offset="0.4983" style="stop-color:#E8E8E8"/>
			<stop  offset="0.8226" style="stop-color:#CCCCCC"/>
			<stop  offset="1" style="stop-color:#BABABA"/>
		</linearGradient>
		<path style="fill:url(#SVGID_00000133509984163743719820000002466181057145041035_);" d="M-141.008,373.513l-0.746-1.855
			c202.104-81.307,352.74-189.468,443.519-265.887c98.342-82.785,149.534-147.145,150.04-147.785l1.569,1.239
			c-0.507,0.642-51.825,65.161-150.321,148.076c-57.84,48.69-120.399,94.113-185.941,135.006
			C35.185,293.424-51.659,337.567-141.008,373.513z"/>
	</g>
	<g style="opacity:0.42;clip-path:url(#SVGID_00000121281039324755516170000010442953686610850989_);">
		
			<linearGradient id="SVGID_00000043445711911966708000000011683995241112486586_" gradientUnits="userSpaceOnUse" x1="37.584" y1="359.9437" x2="333.584" y2="-264.0563">
			<stop  offset="0" style="stop-color:#FFFFFF"/>
			<stop  offset="0.2132" style="stop-color:#F9F9F9"/>
			<stop  offset="0.4983" style="stop-color:#E8E8E8"/>
			<stop  offset="0.8226" style="stop-color:#CCCCCC"/>
			<stop  offset="1" style="stop-color:#BABABA"/>
		</linearGradient>
		<path style="fill:url(#SVGID_00000043445711911966708000000011683995241112486586_);" d="M-157.008,352.513l-0.746-1.855
			c202.104-81.306,352.74-189.468,443.519-265.887C384.107,1.985,435.298-62.374,435.804-63.014l1.569,1.239
			c-0.507,0.642-51.825,65.161-150.321,148.076c-57.84,48.69-120.399,94.113-185.941,135.006
			C19.185,272.424-67.659,316.567-157.008,352.513z"/>
	</g>
	<g style="opacity:0.42;clip-path:url(#SVGID_00000121281039324755516170000010442953686610850989_);">
		
			<linearGradient id="SVGID_00000162323491786320951160000007012667011621243069_" gradientUnits="userSpaceOnUse" x1="18.7564" y1="351.0127" x2="314.7564" y2="-272.9873">
			<stop  offset="0" style="stop-color:#FFFFFF"/>
			<stop  offset="0.2132" style="stop-color:#F9F9F9"/>
			<stop  offset="0.4983" style="stop-color:#E8E8E8"/>
			<stop  offset="0.8226" style="stop-color:#CCCCCC"/>
			<stop  offset="1" style="stop-color:#BABABA"/>
		</linearGradient>
		<path style="fill:url(#SVGID_00000162323491786320951160000007012667011621243069_);" d="M-172.008,335.513l-0.746-1.855
			c202.104-81.306,352.74-189.468,443.519-265.887c98.342-82.785,149.534-147.145,150.04-147.785l1.569,1.239
			c-0.507,0.642-51.825,65.161-150.321,148.076c-57.84,48.69-120.399,94.113-185.941,135.006
			C4.185,255.424-82.659,299.567-172.008,335.513z"/>
	</g>
	<g style="opacity:0.42;clip-path:url(#SVGID_00000121281039324755516170000010442953686610850989_);">
		
			<linearGradient id="SVGID_00000014629444500420254790000003284150581705311639_" gradientUnits="userSpaceOnUse" x1="0.3161" y1="342.2653" x2="296.3161" y2="-281.7347">
			<stop  offset="0" style="stop-color:#FFFFFF"/>
			<stop  offset="0.2132" style="stop-color:#F9F9F9"/>
			<stop  offset="0.4983" style="stop-color:#E8E8E8"/>
			<stop  offset="0.8226" style="stop-color:#CCCCCC"/>
			<stop  offset="1" style="stop-color:#BABABA"/>
		</linearGradient>
		<path style="fill:url(#SVGID_00000014629444500420254790000003284150581705311639_);" d="M-187.008,319.513l-0.746-1.855
			c202.104-81.306,352.74-189.468,443.519-265.887c98.342-82.785,149.534-147.145,150.04-147.785l1.569,1.239
			c-0.507,0.642-51.825,65.161-150.321,148.076c-57.84,48.69-120.399,94.113-185.941,135.006
			C-10.815,239.424-97.659,283.567-187.008,319.513z"/>
	</g>
	<g style="opacity:0.42;clip-path:url(#SVGID_00000121281039324755516170000010442953686610850989_);">
		
			<linearGradient id="SVGID_00000066494810666890459020000017648948321518267827_" gradientUnits="userSpaceOnUse" x1="-16.1044" y1="334.4761" x2="279.8956" y2="-289.5239">
			<stop  offset="0" style="stop-color:#FFFFFF"/>
			<stop  offset="0.2132" style="stop-color:#F9F9F9"/>
			<stop  offset="0.4983" style="stop-color:#E8E8E8"/>
			<stop  offset="0.8226" style="stop-color:#CCCCCC"/>
			<stop  offset="1" style="stop-color:#BABABA"/>
		</linearGradient>
		<path style="fill:url(#SVGID_00000066494810666890459020000017648948321518267827_);" d="M-200.008,304.513l-0.746-1.855
			C1.349,221.351,151.985,113.189,242.765,36.771c98.342-82.785,149.534-147.145,150.04-147.785l1.569,1.239
			c-0.507,0.642-51.825,65.161-150.321,148.076c-57.84,48.69-120.399,94.113-185.941,135.006
			C-23.815,224.424-110.659,268.567-200.008,304.513z"/>
	</g>
	<g style="opacity:0.42;clip-path:url(#SVGID_00000121281039324755516170000010442953686610850989_);">
		
			<linearGradient id="SVGID_00000081630731771546506560000010382656420202010779_" gradientUnits="userSpaceOnUse" x1="-33.3831" y1="326.2798" x2="262.6169" y2="-297.7202">
			<stop  offset="0" style="stop-color:#FFFFFF"/>
			<stop  offset="0.2132" style="stop-color:#F9F9F9"/>
			<stop  offset="0.4983" style="stop-color:#E8E8E8"/>
			<stop  offset="0.8226" style="stop-color:#CCCCCC"/>
			<stop  offset="1" style="stop-color:#BABABA"/>
		</linearGradient>
		<path style="fill:url(#SVGID_00000081630731771546506560000010382656420202010779_);" d="M-215.008,291.513l-0.746-1.855
			c202.104-81.306,352.74-189.468,443.519-265.887c98.342-82.785,149.534-147.145,150.04-147.785l1.569,1.239
			c-0.507,0.642-51.825,65.161-150.321,148.076c-57.84,48.69-120.399,94.113-185.941,135.006
			C-38.815,211.424-125.659,255.567-215.008,291.513z"/>
	</g>
	<g style="opacity:0.42;clip-path:url(#SVGID_00000121281039324755516170000010442953686610850989_);">
		
			<linearGradient id="SVGID_00000032606815518249385040000011740754780788209800_" gradientUnits="userSpaceOnUse" x1="-49.8036" y1="318.4906" x2="246.1964" y2="-305.5094">
			<stop  offset="0" style="stop-color:#FFFFFF"/>
			<stop  offset="0.2132" style="stop-color:#F9F9F9"/>
			<stop  offset="0.4983" style="stop-color:#E8E8E8"/>
			<stop  offset="0.8226" style="stop-color:#CCCCCC"/>
			<stop  offset="1" style="stop-color:#BABABA"/>
		</linearGradient>
		<path style="fill:url(#SVGID_00000032606815518249385040000011740754780788209800_);" d="M-228.008,276.513l-0.746-1.855
			C-26.651,193.351,123.985,85.189,214.765,8.771c98.342-82.785,149.534-147.145,150.04-147.785l1.569,1.239
			c-0.507,0.642-51.825,65.161-150.321,148.076c-57.84,48.69-120.399,94.113-185.941,135.006
			C-51.815,196.424-138.659,240.567-228.008,276.513z"/>
	</g>
	<g style="opacity:0.42;clip-path:url(#SVGID_00000121281039324755516170000010442953686610850989_);">
		
			<linearGradient id="SVGID_00000051380953851615939310000015384539511868296325_" gradientUnits="userSpaceOnUse" x1="-65.9625" y1="310.8255" x2="230.0375" y2="-313.1745">
			<stop  offset="0" style="stop-color:#FFFFFF"/>
			<stop  offset="0.2132" style="stop-color:#F9F9F9"/>
			<stop  offset="0.4983" style="stop-color:#E8E8E8"/>
			<stop  offset="0.8226" style="stop-color:#CCCCCC"/>
			<stop  offset="1" style="stop-color:#BABABA"/>
		</linearGradient>
		<path style="fill:url(#SVGID_00000051380953851615939310000015384539511868296325_);" d="M-244.008,268.513l-0.746-1.855
			C-42.651,185.351,107.985,77.189,198.765,0.771c98.342-82.785,149.534-147.145,150.04-147.785l1.569,1.239
			c-0.507,0.642-51.825,65.161-150.321,148.076c-57.84,48.69-120.399,94.113-185.941,135.006
			C-67.815,188.424-154.659,232.567-244.008,268.513z"/>
	</g>
	<g style="opacity:0.42;clip-path:url(#SVGID_00000121281039324755516170000010442953686610850989_);">
		
			<linearGradient id="SVGID_00000062161584745873517200000002875360470761519247_" gradientUnits="userSpaceOnUse" x1="-80.405" y1="303.9745" x2="215.595" y2="-320.0255">
			<stop  offset="0" style="stop-color:#FFFFFF"/>
			<stop  offset="0.2132" style="stop-color:#F9F9F9"/>
			<stop  offset="0.4983" style="stop-color:#E8E8E8"/>
			<stop  offset="0.8226" style="stop-color:#CCCCCC"/>
			<stop  offset="1" style="stop-color:#BABABA"/>
		</linearGradient>
		<path style="fill:url(#SVGID_00000062161584745873517200000002875360470761519247_);" d="M-256.008,256.513l-0.746-1.855
			C-54.651,173.351,95.985,65.189,186.765-11.229c98.342-82.785,149.534-147.145,150.04-147.785l1.569,1.239
			c-0.507,0.642-51.825,65.161-150.321,148.076C130.213,38.991,67.653,84.414,2.111,125.307
			C-79.815,176.424-166.659,220.567-256.008,256.513z"/>
	</g>
	<g style="opacity:0.42;clip-path:url(#SVGID_00000121281039324755516170000010442953686610850989_);">
		
			<linearGradient id="SVGID_00000099633707692688146160000012301881822418561201_" gradientUnits="userSpaceOnUse" x1="-92.8276" y1="298.0818" x2="203.1724" y2="-325.9182">
			<stop  offset="0" style="stop-color:#FFFFFF"/>
			<stop  offset="0.2132" style="stop-color:#F9F9F9"/>
			<stop  offset="0.4983" style="stop-color:#E8E8E8"/>
			<stop  offset="0.8226" style="stop-color:#CCCCCC"/>
			<stop  offset="1" style="stop-color:#BABABA"/>
		</linearGradient>
		<path style="fill:url(#SVGID_00000099633707692688146160000012301881822418561201_);" d="M-266.008,245.513l-0.746-1.855
			C-64.651,162.351,85.985,54.189,176.765-22.229c98.342-82.785,149.534-147.145,150.04-147.785l1.569,1.239
			c-0.507,0.642-51.825,65.161-150.321,148.076C120.213,27.991,57.653,73.414-7.889,114.307
			C-89.815,165.424-176.659,209.567-266.008,245.513z"/>
	</g>
	<g style="opacity:0.42;clip-path:url(#SVGID_00000121281039324755516170000010442953686610850989_);">
		
			<linearGradient id="SVGID_00000069387457245146433750000005717395141997829024_" gradientUnits="userSpaceOnUse" x1="-105.2503" y1="292.189" x2="190.7497" y2="-331.811">
			<stop  offset="0" style="stop-color:#FFFFFF"/>
			<stop  offset="0.2132" style="stop-color:#F9F9F9"/>
			<stop  offset="0.4983" style="stop-color:#E8E8E8"/>
			<stop  offset="0.8226" style="stop-color:#CCCCCC"/>
			<stop  offset="1" style="stop-color:#BABABA"/>
		</linearGradient>
		<path style="fill:url(#SVGID_00000069387457245146433750000005717395141997829024_);" d="M-276.008,234.513l-0.746-1.855
			C-74.651,151.351,75.985,43.189,166.765-33.229c98.342-82.785,149.534-147.145,150.04-147.785l1.569,1.239
			c-0.507,0.642-51.825,65.161-150.321,148.076c-57.84,48.69-120.399,94.113-185.941,135.006
			C-99.815,154.424-186.659,198.567-276.008,234.513z"/>
	</g>
	<g style="opacity:0.42;clip-path:url(#SVGID_00000121281039324755516170000010442953686610850989_);">
		
			<linearGradient id="SVGID_00000041271676983483385790000001374093909442829484_" gradientUnits="userSpaceOnUse" x1="-115.6531" y1="287.2543" x2="180.3469" y2="-336.7457">
			<stop  offset="0" style="stop-color:#FFFFFF"/>
			<stop  offset="0.2132" style="stop-color:#F9F9F9"/>
			<stop  offset="0.4983" style="stop-color:#E8E8E8"/>
			<stop  offset="0.8226" style="stop-color:#CCCCCC"/>
			<stop  offset="1" style="stop-color:#BABABA"/>
		</linearGradient>
		<path style="fill:url(#SVGID_00000041271676983483385790000001374093909442829484_);" d="M-284.008,224.513l-0.746-1.855
			C-82.651,141.351,67.985,33.189,158.765-43.229c98.342-82.785,149.534-147.145,150.04-147.785l1.569,1.239
			c-0.507,0.642-51.825,65.161-150.321,148.076C102.213,6.991,39.653,52.414-25.889,93.307
			C-107.815,144.424-194.659,188.567-284.008,224.513z"/>
	</g>
	<g style="opacity:0.42;clip-path:url(#SVGID_00000121281039324755516170000010442953686610850989_);">
		
			<linearGradient id="SVGID_00000181050770635434988110000005527412106488644233_" gradientUnits="userSpaceOnUse" x1="-124.8523" y1="282.8906" x2="171.1477" y2="-341.1094">
			<stop  offset="0" style="stop-color:#FFFFFF"/>
			<stop  offset="0.2132" style="stop-color:#F9F9F9"/>
			<stop  offset="0.4983" style="stop-color:#E8E8E8"/>
			<stop  offset="0.8226" style="stop-color:#CCCCCC"/>
			<stop  offset="1" style="stop-color:#BABABA"/>
		</linearGradient>
		<path style="fill:url(#SVGID_00000181050770635434988110000005527412106488644233_);" d="M-291.008,215.513l-0.746-1.855
			C-89.651,132.351,60.985,24.189,151.765-52.229c98.342-82.785,149.534-147.145,150.04-147.785l1.569,1.239
			c-0.507,0.642-51.825,65.161-150.321,148.076C95.213-2.009,32.653,43.414-32.889,84.307
			C-114.815,135.424-201.659,179.567-291.008,215.513z"/>
	</g>
	<g style="opacity:0.42;clip-path:url(#SVGID_00000121281039324755516170000010442953686610850989_);">
		
			<linearGradient id="SVGID_00000093885038637950172400000002128137504454014877_" gradientUnits="userSpaceOnUse" x1="-134.0516" y1="278.5268" x2="161.9484" y2="-345.4732">
			<stop  offset="0" style="stop-color:#FFFFFF"/>
			<stop  offset="0.2132" style="stop-color:#F9F9F9"/>
			<stop  offset="0.4983" style="stop-color:#E8E8E8"/>
			<stop  offset="0.8226" style="stop-color:#CCCCCC"/>
			<stop  offset="1" style="stop-color:#BABABA"/>
		</linearGradient>
		<path style="fill:url(#SVGID_00000093885038637950172400000002128137504454014877_);" d="M-298.008,206.513l-0.746-1.855
			C-96.651,123.351,53.985,15.189,144.765-61.229c98.342-82.785,149.534-147.145,150.04-147.785l1.569,1.239
			c-0.507,0.642-51.825,65.161-150.321,148.076C88.213-11.009,25.653,34.414-39.889,75.307
			C-121.815,126.424-208.659,170.567-298.008,206.513z"/>
	</g>
	<g style="opacity:0.42;clip-path:url(#SVGID_00000121281039324755516170000010442953686610850989_);">
		
			<linearGradient id="SVGID_00000125564849122404839330000016038720217558940345_" gradientUnits="userSpaceOnUse" x1="-143.2821" y1="274.229" x2="152.7179" y2="-349.771">
			<stop  offset="0" style="stop-color:#FFFFFF"/>
			<stop  offset="0.2132" style="stop-color:#F9F9F9"/>
			<stop  offset="0.4983" style="stop-color:#E8E8E8"/>
			<stop  offset="0.8226" style="stop-color:#CCCCCC"/>
			<stop  offset="1" style="stop-color:#BABABA"/>
		</linearGradient>
		<path style="fill:url(#SVGID_00000125564849122404839330000016038720217558940345_);" d="M-305.008,197.513l-0.746-1.855
			C-103.651,114.351,46.985,6.189,137.765-70.229c98.342-82.785,149.534-147.145,150.04-147.785l1.569,1.239
			c-0.507,0.642-51.825,65.161-150.321,148.076C81.213-20.009,18.653,25.414-46.889,66.307
			C-128.815,117.424-215.659,161.567-305.008,197.513z"/>
	</g>
	<g style="opacity:0.42;clip-path:url(#SVGID_00000121281039324755516170000010442953686610850989_);">
		
			<linearGradient id="SVGID_00000006673936981159425140000009199419446438359433_" gradientUnits="userSpaceOnUse" x1="-153.6536" y1="269.2284" x2="142.3464" y2="-354.7716">
			<stop  offset="0" style="stop-color:#FFFFFF"/>
			<stop  offset="0.2132" style="stop-color:#F9F9F9"/>
			<stop  offset="0.4983" style="stop-color:#E8E8E8"/>
			<stop  offset="0.8226" style="stop-color:#CCCCCC"/>
			<stop  offset="1" style="stop-color:#BABABA"/>
		</linearGradient>
		<path style="fill:url(#SVGID_00000006673936981159425140000009199419446438359433_);" d="M-313.008,187.513l-0.746-1.855
			C-111.651,104.351,38.985-3.811,129.765-80.229c98.342-82.785,149.534-147.145,150.04-147.785l1.569,1.239
			c-0.507,0.642-51.825,65.161-150.321,148.076C73.213-30.009,10.653,15.414-54.889,56.307
			C-136.815,107.424-223.659,151.567-313.008,187.513z"/>
	</g>
	<g style="opacity:0.42;clip-path:url(#SVGID_00000121281039324755516170000010442953686610850989_);">
		
			<linearGradient id="SVGID_00000043441981750077391870000006207358626066331784_" gradientUnits="userSpaceOnUse" x1="-161.2621" y1="265.6193" x2="134.7379" y2="-358.3807">
			<stop  offset="0" style="stop-color:#FFFFFF"/>
			<stop  offset="0.2132" style="stop-color:#F9F9F9"/>
			<stop  offset="0.4983" style="stop-color:#E8E8E8"/>
			<stop  offset="0.8226" style="stop-color:#CCCCCC"/>
			<stop  offset="1" style="stop-color:#BABABA"/>
		</linearGradient>
		<path style="fill:url(#SVGID_00000043441981750077391870000006207358626066331784_);" d="M-319.008,180.513l-0.746-1.855
			C-117.651,97.351,32.985-10.811,123.765-87.229c98.342-82.785,149.534-147.145,150.04-147.785l1.569,1.239
			c-0.507,0.642-51.825,65.161-150.321,148.076C67.213-37.009,4.653,8.414-60.889,49.307
			C-142.815,100.424-229.659,144.567-319.008,180.513z"/>
	</g>
	<g style="opacity:0.42;clip-path:url(#SVGID_00000121281039324755516170000010442953686610850989_);">
		
			<linearGradient id="SVGID_00000101811454011468067070000006660358488996398235_" gradientUnits="userSpaceOnUse" x1="-169.6869" y1="261.6229" x2="126.3131" y2="-362.3771">
			<stop  offset="0" style="stop-color:#FFFFFF"/>
			<stop  offset="0.2132" style="stop-color:#F9F9F9"/>
			<stop  offset="0.4983" style="stop-color:#E8E8E8"/>
			<stop  offset="0.8226" style="stop-color:#CCCCCC"/>
			<stop  offset="1" style="stop-color:#BABABA"/>
		</linearGradient>
		<path style="fill:url(#SVGID_00000101811454011468067070000006660358488996398235_);" d="M-326.008,173.513l-0.746-1.855
			C-124.651,90.351,25.985-17.811,116.765-94.229c98.342-82.785,149.534-147.145,150.04-147.785l1.569,1.239
			c-0.507,0.642-51.825,65.161-150.321,148.076C60.213-44.009-2.347,1.414-67.889,42.307
			C-149.815,93.424-236.659,137.567-326.008,173.513z"/>
	</g>
	<g style="clip-path:url(#SVGID_00000121281039324755516170000010442953686610850989_);">
		
			<linearGradient id="SVGID_00000179643429146387924070000013857656172137207715_" gradientUnits="userSpaceOnUse" x1="611.9285" y1="640.412" x2="897.4215" y2="38.5618">
			<stop  offset="0" style="stop-color:#FFFFFF"/>
			<stop  offset="0.2132" style="stop-color:#F9F9F9"/>
			<stop  offset="0.4983" style="stop-color:#E8E8E8"/>
			<stop  offset="0.8226" style="stop-color:#CCCCCC"/>
			<stop  offset="1" style="stop-color:#BABABA"/>
		</linearGradient>
		<path style="fill:none;stroke:url(#SVGID_00000179643429146387924070000013857656172137207715_);stroke-miterlimit:10;" d="
			M1019,96.749c0,0-276-19.749-254,300.251c6.248,90.877-219.599,39.303-274,186"/>
		
			<linearGradient id="SVGID_00000080187371059499264270000002281213236383670922_" gradientUnits="userSpaceOnUse" x1="631.6683" y1="681.7413" x2="914.1721" y2="86.1929" gradientTransform="matrix(0.9946 0.0364 -0.0364 0.9946 29.0162 -31.8246)">
			<stop  offset="0" style="stop-color:#FFFFFF"/>
			<stop  offset="0.2132" style="stop-color:#F9F9F9"/>
			<stop  offset="0.4983" style="stop-color:#E8E8E8"/>
			<stop  offset="0.8226" style="stop-color:#CCCCCC"/>
			<stop  offset="1" style="stop-color:#BABABA"/>
		</linearGradient>
		<path style="fill:none;stroke:url(#SVGID_00000080187371059499264270000002281213236383670922_);stroke-miterlimit:10;" d="
			M1045.869,145.312c0,0-257.46-18.606-261.473,278.905C783.244,509.671,577.486,472.617,522.5,612"/>
		
			<linearGradient id="SVGID_00000078033961398892161630000009611438355170613940_" gradientUnits="userSpaceOnUse" x1="655.0871" y1="721.3127" x2="933.9995" y2="133.3353" gradientTransform="matrix(0.9892 0.0728 -0.0728 0.9892 58.0324 -63.6493)">
			<stop  offset="0" style="stop-color:#FFFFFF"/>
			<stop  offset="0.2132" style="stop-color:#F9F9F9"/>
			<stop  offset="0.4983" style="stop-color:#E8E8E8"/>
			<stop  offset="0.8226" style="stop-color:#CCCCCC"/>
			<stop  offset="1" style="stop-color:#BABABA"/>
		</linearGradient>
		<path style="fill:none;stroke:url(#SVGID_00000078033961398892161630000009611438355170613940_);stroke-miterlimit:10;" d="
			M1072.738,193.875c0,0-239.302-17.138-268.946,257.559C795.145,531.565,609.57,508.932,554,641"/>
		
			<linearGradient id="SVGID_00000067949505888911017210000014782454374842896813_" gradientUnits="userSpaceOnUse" x1="682.0631" y1="758.7593" x2="956.7993" y2="179.5856" gradientTransform="matrix(0.9837 0.1093 -0.1093 0.9837 87.0486 -95.4739)">
			<stop  offset="0" style="stop-color:#FFFFFF"/>
			<stop  offset="0.2132" style="stop-color:#F9F9F9"/>
			<stop  offset="0.4983" style="stop-color:#E8E8E8"/>
			<stop  offset="0.8226" style="stop-color:#CCCCCC"/>
			<stop  offset="1" style="stop-color:#BABABA"/>
		</linearGradient>
		<path style="fill:none;stroke:url(#SVGID_00000067949505888911017210000014782454374842896813_);stroke-miterlimit:10;" d="
			M1099.607,242.438c0,0-221.695-15.411-276.418,236.213C806.901,553.543,641.655,545.246,585.5,670"/>
		
			<linearGradient id="SVGID_00000138556476740089519680000010226793849018677938_" gradientUnits="userSpaceOnUse" x1="712.4059" y1="793.7381" x2="982.4085" y2="224.5433" gradientTransform="matrix(0.9783 0.1457 -0.1457 0.9783 116.0648 -127.2986)">
			<stop  offset="0" style="stop-color:#FFFFFF"/>
			<stop  offset="0.2132" style="stop-color:#F9F9F9"/>
			<stop  offset="0.4983" style="stop-color:#E8E8E8"/>
			<stop  offset="0.8226" style="stop-color:#CCCCCC"/>
			<stop  offset="1" style="stop-color:#BABABA"/>
		</linearGradient>
		<path style="fill:none;stroke:url(#SVGID_00000138556476740089519680000010226793849018677938_);stroke-miterlimit:10;" d="
			M1126.476,291.001c0,0-204.802-13.585-283.891,214.867C818.459,575.556,673.739,581.561,617,699"/>
		
			<linearGradient id="SVGID_00000087374363697761327230000012873641770272913298_" gradientUnits="userSpaceOnUse" x1="745.8504" y1="825.9355" x2="1010.5991" y2="267.8166" gradientTransform="matrix(0.9729 0.1821 -0.1821 0.9729 145.0809 -159.1232)">
			<stop  offset="0" style="stop-color:#FFFFFF"/>
			<stop  offset="0.2132" style="stop-color:#F9F9F9"/>
			<stop  offset="0.4983" style="stop-color:#E8E8E8"/>
			<stop  offset="0.8226" style="stop-color:#CCCCCC"/>
			<stop  offset="1" style="stop-color:#BABABA"/>
		</linearGradient>
		<path style="fill:none;stroke:url(#SVGID_00000087374363697761327230000012873641770272913298_);stroke-miterlimit:10;" d="
			M1153.345,339.564c0,0-188.703-11.92-291.364,193.521C829.781,597.522,705.824,617.875,648.5,728"/>
		
			<linearGradient id="SVGID_00000131362506067632424130000014231407135195371662_" gradientUnits="userSpaceOnUse" x1="782.031" y1="855.0602" x2="1041.051" y2="309.0181" gradientTransform="matrix(0.9675 0.2185 -0.2185 0.9675 174.0971 -190.9479)">
			<stop  offset="0" style="stop-color:#FFFFFF"/>
			<stop  offset="0.2132" style="stop-color:#F9F9F9"/>
			<stop  offset="0.4983" style="stop-color:#E8E8E8"/>
			<stop  offset="0.8226" style="stop-color:#CCCCCC"/>
			<stop  offset="1" style="stop-color:#BABABA"/>
		</linearGradient>
		<path style="fill:none;stroke:url(#SVGID_00000131362506067632424130000014231407135195371662_);stroke-miterlimit:10;" d="
			M1180.214,388.127c0,0-173.328-10.735-298.837,172.175C840.871,619.334,737.908,654.19,680,757"/>
		
			<linearGradient id="SVGID_00000062876323842466293220000017989126574316637855_" gradientUnits="userSpaceOnUse" x1="820.3299" y1="880.7747" x2="1073.1996" y2="347.6979" gradientTransform="matrix(0.962 0.2549 -0.2549 0.962 203.1133 -222.7725)">
			<stop  offset="0" style="stop-color:#FFFFFF"/>
			<stop  offset="0.2132" style="stop-color:#F9F9F9"/>
			<stop  offset="0.4983" style="stop-color:#E8E8E8"/>
			<stop  offset="0.8226" style="stop-color:#CCCCCC"/>
			<stop  offset="1" style="stop-color:#BABABA"/>
		</linearGradient>
		<path style="fill:none;stroke:url(#SVGID_00000062876323842466293220000017989126574316637855_);stroke-miterlimit:10;" d="
			M1207.083,436.69c0,0-158.422-10.307-306.309,150.829C851.788,640.893,769.992,690.505,711.5,786"/>
		
			<linearGradient id="SVGID_00000033345971027790537680000000173082229761638574_" gradientUnits="userSpaceOnUse" x1="858.5925" y1="902.0847" x2="1104.9492" y2="382.7382" gradientTransform="matrix(0.9566 0.2913 -0.2913 0.9566 232.1295 -254.5972)">
			<stop  offset="0" style="stop-color:#FFFFFF"/>
			<stop  offset="0.2132" style="stop-color:#F9F9F9"/>
			<stop  offset="0.4983" style="stop-color:#E8E8E8"/>
			<stop  offset="0.8226" style="stop-color:#CCCCCC"/>
			<stop  offset="1" style="stop-color:#BABABA"/>
		</linearGradient>
		<path style="fill:none;stroke:url(#SVGID_00000033345971027790537680000000173082229761638574_);stroke-miterlimit:10;" d="
			M1233.952,485.253c0,0-257.127-19.271-490.952,329.747"/>
	</g>
	
		<linearGradient id="SVGID_00000147916708097931991490000005290106547449079941_" gradientUnits="userSpaceOnUse" x1="494.6429" y1="354.0966" x2="694.5014" y2="-67.2267">
		<stop  offset="0" style="stop-color:#FFFFFF"/>
		<stop  offset="0.2132" style="stop-color:#F9F9F9"/>
		<stop  offset="0.4983" style="stop-color:#E8E8E8"/>
		<stop  offset="0.8226" style="stop-color:#CCCCCC"/>
		<stop  offset="1" style="stop-color:#BABABA"/>
	</linearGradient>
	
		<path style="clip-path:url(#SVGID_00000121281039324755516170000010442953686610850989_);fill:none;stroke:url(#SVGID_00000147916708097931991490000005290106547449079941_);stroke-miterlimit:10;" d="
		M766.576-33c0,0-73.436,186.445-344.203,352.513"/>
	
		<linearGradient id="SVGID_00000085954072832264624510000014751766606812959669_" gradientUnits="userSpaceOnUse" x1="735.6429" y1="227.0965" x2="935.5014" y2="-194.2267">
		<stop  offset="0" style="stop-color:#FFFFFF"/>
		<stop  offset="0.2132" style="stop-color:#F9F9F9"/>
		<stop  offset="0.4983" style="stop-color:#E8E8E8"/>
		<stop  offset="0.8226" style="stop-color:#CCCCCC"/>
		<stop  offset="1" style="stop-color:#BABABA"/>
	</linearGradient>
	
		<path style="clip-path:url(#SVGID_00000121281039324755516170000010442953686610850989_);fill:none;stroke:url(#SVGID_00000085954072832264624510000014751766606812959669_);stroke-miterlimit:10;" d="
		M1007.576-160c0,0-73.436,186.445-344.203,352.513"/>
	
		<linearGradient id="SVGID_00000048498523228746424730000005733693620871111563_" gradientUnits="userSpaceOnUse" x1="563.6429" y1="338.0966" x2="763.5014" y2="-83.2267">
		<stop  offset="0" style="stop-color:#FFFFFF"/>
		<stop  offset="0.2132" style="stop-color:#F9F9F9"/>
		<stop  offset="0.4983" style="stop-color:#E8E8E8"/>
		<stop  offset="0.8226" style="stop-color:#CCCCCC"/>
		<stop  offset="1" style="stop-color:#BABABA"/>
	</linearGradient>
	
		<path style="clip-path:url(#SVGID_00000121281039324755516170000010442953686610850989_);fill:none;stroke:url(#SVGID_00000048498523228746424730000005733693620871111563_);stroke-miterlimit:10;" d="
		M835.576-49c0,0-73.436,186.445-344.203,352.513"/>
	
		<linearGradient id="SVGID_00000017509703007181597890000007598589861864599995_" gradientUnits="userSpaceOnUse" x1="136.6429" y1="-50.9035" x2="336.5014" y2="-472.2267" gradientTransform="matrix(-1 0 0 -1 409.9496 159.5127)">
		<stop  offset="0" style="stop-color:#FFFFFF"/>
		<stop  offset="0.2132" style="stop-color:#F9F9F9"/>
		<stop  offset="0.4983" style="stop-color:#E8E8E8"/>
		<stop  offset="0.8226" style="stop-color:#CCCCCC"/>
		<stop  offset="1" style="stop-color:#BABABA"/>
	</linearGradient>
	
		<path style="clip-path:url(#SVGID_00000121281039324755516170000010442953686610850989_);fill:none;stroke:url(#SVGID_00000017509703007181597890000007598589861864599995_);stroke-miterlimit:10;" d="
		M1.374,597.513c0,0,73.436-186.445,344.203-352.513"/>
	
		<linearGradient id="SVGID_00000087404190648560464730000001196098881223849404_" gradientUnits="userSpaceOnUse" x1="377.6429" y1="-177.9035" x2="577.5014" y2="-599.2267" gradientTransform="matrix(-1 0 0 -1 409.9496 159.5127)">
		<stop  offset="0" style="stop-color:#FFFFFF"/>
		<stop  offset="0.2132" style="stop-color:#F9F9F9"/>
		<stop  offset="0.4983" style="stop-color:#E8E8E8"/>
		<stop  offset="0.8226" style="stop-color:#CCCCCC"/>
		<stop  offset="1" style="stop-color:#BABABA"/>
	</linearGradient>
	
		<path style="clip-path:url(#SVGID_00000121281039324755516170000010442953686610850989_);fill:none;stroke:url(#SVGID_00000087404190648560464730000001196098881223849404_);stroke-miterlimit:10;" d="
		M-239.626,724.513c0,0,73.436-186.445,344.203-352.513"/>
	
		<linearGradient id="SVGID_00000098185122230740970980000002589459242404900789_" gradientUnits="userSpaceOnUse" x1="205.6429" y1="-66.9035" x2="405.5014" y2="-488.2267" gradientTransform="matrix(-1 0 0 -1 409.9496 159.5127)">
		<stop  offset="0" style="stop-color:#FFFFFF"/>
		<stop  offset="0.2132" style="stop-color:#F9F9F9"/>
		<stop  offset="0.4983" style="stop-color:#E8E8E8"/>
		<stop  offset="0.8226" style="stop-color:#CCCCCC"/>
		<stop  offset="1" style="stop-color:#BABABA"/>
	</linearGradient>
	
		<path style="clip-path:url(#SVGID_00000121281039324755516170000010442953686610850989_);fill:none;stroke:url(#SVGID_00000098185122230740970980000002589459242404900789_);stroke-miterlimit:10;" d="
		M-67.626,613.513c0,0,73.436-186.445,344.203-352.513"/>
	
		<linearGradient id="SVGID_00000163791670784459882210000009575402133690539662_" gradientUnits="userSpaceOnUse" x1="282.418" y1="695.2694" x2="676.3915" y2="-135.2694">
		<stop  offset="0" style="stop-color:#FFFFFF"/>
		<stop  offset="0.2132" style="stop-color:#F9F9F9"/>
		<stop  offset="0.4983" style="stop-color:#E8E8E8"/>
		<stop  offset="0.8226" style="stop-color:#CCCCCC"/>
		<stop  offset="1" style="stop-color:#BABABA"/>
	</linearGradient>
	
		<rect x="-1.19" style="clip-path:url(#SVGID_00000121281039324755516170000010442953686610850989_);fill:none;stroke:url(#SVGID_00000163791670784459882210000009575402133690539662_);stroke-miterlimit:10;" width="961.19" height="560"/>
</g>
</svg>
